<!DOCTYPE svg PUBLIC "-//W3C//DTD SVG 1.1//EN" "http://www.w3.org/Graphics/SVG/1.1/DTD/svg11.dtd">
<!-- Uploaded to: SVG Repo, www.svgrepo.com, Transformed by: SVG Repo Mixer Tools -->
<svg fill="#fff" height="800px" width="800px" version="1.1" id="Layer_1" xmlns="http://www.w3.org/2000/svg" xmlns:xlink="http://www.w3.org/1999/xlink" viewBox="0 0 470 470" xml:space="preserve" stroke="#fff">
<g id="SVGRepo_bgCarrier" stroke-width="0"/>
<g id="SVGRepo_tracerCarrier" stroke-linecap="round" stroke-linejoin="round"/>
<g id="SVGRepo_iconCarrier"> <path d="M380.884,95.024l30-0.049L410.73,0.154L315.909,0l-0.049,30l43.74,0.071l-58.633,58.633 c-25.543-20.864-58.144-33.397-93.621-33.397c-81.735,0-148.231,66.496-148.231,148.231c0,76.672,58.514,139.933,133.231,147.476 v47.601h-41.569v30h41.569V470h30v-41.384h41.568v-30h-41.568v-47.601c74.717-7.543,133.231-70.804,133.231-147.476 c0-35.477-12.533-68.078-33.397-93.621l58.633-58.633L380.884,95.024z M207.347,321.769c-65.193,0-118.231-53.038-118.231-118.231 S142.154,85.307,207.347,85.307s118.231,53.038,118.231,118.231S272.54,321.769,207.347,321.769z"/> </g>
</svg>