<!DOCTYPE svg PUBLIC "-//W3C//DTD SVG 1.1//EN" "http://www.w3.org/Graphics/SVG/1.1/DTD/svg11.dtd">
<!-- Uploaded to: SVG Repo, www.svgrepo.com, Transformed by: SVG Repo Mixer Tools -->
<svg fill="#fff" version="1.1" id="Capa_1" xmlns="http://www.w3.org/2000/svg" xmlns:xlink="http://www.w3.org/1999/xlink" width="800px" height="800px" viewBox="0 0 59.998 59.998" xml:space="preserve" stroke="#fff">
<g id="SVGRepo_bgCarrier" stroke-width="0"/>
<g id="SVGRepo_tracerCarrier" stroke-linecap="round" stroke-linejoin="round"/>
<g id="SVGRepo_iconCarrier"> <g> <path d="M40.749,0h-21.5c-0.829,0-1.5,0.672-1.5,1.5v56.998c0,0.828,0.671,1.5,1.5,1.5h21.5c0.829,0,1.5-0.672,1.5-1.5V1.5 C42.249,0.672,41.578,0,40.749,0z M20.749,56.998V3h18.5v1.998h-3.875c-0.829,0-1.5,0.672-1.5,1.5c0,0.828,0.671,1.5,1.5,1.5h3.875 v1h-9.25c-0.829,0-1.5,0.672-1.5,1.5c0,0.828,0.671,1.5,1.5,1.5h9.25v1h-3.875c-0.829,0-1.5,0.672-1.5,1.5 c0,0.828,0.671,1.5,1.5,1.5h3.875v1h-9.25c-0.829,0-1.5,0.672-1.5,1.5c0,0.828,0.671,1.5,1.5,1.5h9.25v1h-3.875 c-0.829,0-1.5,0.672-1.5,1.5c0,0.828,0.671,1.5,1.5,1.5h3.875v1h-9.25c-0.829,0-1.5,0.672-1.5,1.5c0,0.828,0.671,1.5,1.5,1.5h9.25 v1h-3.875c-0.829,0-1.5,0.672-1.5,1.5c0,0.828,0.671,1.5,1.5,1.5h3.875v1h-9.25c-0.829,0-1.5,0.672-1.5,1.5s0.671,1.5,1.5,1.5h9.25 v1h-3.875c-0.829,0-1.5,0.672-1.5,1.5s0.671,1.5,1.5,1.5h3.875v1h-9.25c-0.829,0-1.5,0.672-1.5,1.5s0.671,1.5,1.5,1.5h9.25v1 h-3.875c-0.829,0-1.5,0.672-1.5,1.5s0.671,1.5,1.5,1.5h3.875v1h-9.25c-0.829,0-1.5,0.672-1.5,1.5s0.671,1.5,1.5,1.5h9.25v1h-3.875 c-0.829,0-1.5,0.672-1.5,1.5s0.671,1.5,1.5,1.5h3.875v1H20.749z"/> </g> </g>
</svg>